<svg width="163" height="66" fill="none" xmlns="http://www.w3.org/2000/svg"><g fill="#408F95"><path d="M2.84 22.335c-.38 0-.745-.213-.919-.576-.546-1.13-.76-2.26-.65-3.35.579-5.578 9.248-8.36 15.582-10.39 6.682-2.14 13.76-3.373 21.029-3.658.538-.04 1.037.411 1.06.98a1.024 1.024 0 01-.981 1.059c-7.086.276-13.974 1.47-20.482 3.555-5.139 1.651-13.745 4.409-14.18 8.667-.072.719.079 1.477.459 2.267a1.017 1.017 0 01-.919 1.462v-.016zm114.192 6.234h-.119a27.22 27.22 0 01-4.869-1.02c-2.114-.647-3.69-1.437-4.355-1.77l-.221-.11a282.796 282.796 0 00-22.114-9.567C78.49 13.479 73.06 11.4 65.76 9.584a123.98 123.98 0 00-23.713-3.485 1.017 1.017 0 11.103-2.03c8.163.403 16.27 1.596 24.108 3.547 7.427 1.85 12.898 3.943 19.834 6.59a285.35 285.35 0 0122.271 9.63l.246.119c.681.34 2.098 1.05 4.045 1.651 1.473.45 2.985.766 4.505.94a1.014 1.014 0 01-.118 2.022h-.008z"/><path d="M21.683 40.356c-.159 0-.317-.04-.468-.11-1.75-.909-4.362-2.3-6.84-3.785-.657-.395-1.884-1.122-3.468-2.188a44.191 44.191 0 01-1.544-1.075 67.038 67.038 0 01-5.566-4.432 1.216 1.216 0 01-.134-.15 18.31 18.31 0 00-.396-.482c-1.79-2.165-3.476-4.416-2.771-6.028.221-.514.768-1.138 2.082-1.209.57-.04 1.045.395 1.077.956a1.018 1.018 0 01-.958 1.074c-.166.008-.27.032-.333.048 0 .363.372 1.32 2.478 3.863.159.19.285.348.38.466a67.263 67.263 0 005.329 4.235c.53.38 1.03.72 1.496 1.043 1.536 1.035 2.732 1.746 3.373 2.133a133.904 133.904 0 006.73 3.721c.499.261.697.87.435 1.375a1.027 1.027 0 01-.902.553v-.008zm40.592 5.934c-9.96 0-19.524-1.122-19.643-1.138a164.183 164.183 0 01-18.012-3.287 1.015 1.015 0 11.475-1.975 160.313 160.313 0 0017.782 3.24c.127.015 13.595 1.596 25.09.98a80.371 80.371 0 0010.745-1.304c1.59-.3 2.454-.514 6.072-1.39l4.378-1.067c1.433-.348 2.684-.664 3.793-.94 3.31-.83 5.495-1.383 7.616-1.533 3.144-.221 6.35.047 9.517.806.546.126.887.679.752 1.224a1.01 1.01 0 01-1.227.75 29.62 29.62 0 00-8.899-.75c-1.948.135-3.95.64-7.26 1.478-1.117.284-2.375.6-3.809.948l-4.378 1.066c-3.57.87-4.529 1.106-6.175 1.414a84.294 84.294 0 01-11.013 1.336 109.39 109.39 0 01-5.804.142zm57.963-17.65c-.435 0-.839-.284-.973-.719a1.015 1.015 0 01.673-1.272c2.375-.727 14.758-4.44 24.963-5.941 4.98-.735 8.63-.806 12.604-.253a39.67 39.67 0 013.864.743c.546.134.879.687.744 1.232a1.01 1.01 0 01-1.235.743 37.516 37.516 0 00-3.665-.703c-3.769-.53-7.253-.459-12.027.245-10.055 1.485-22.311 5.15-24.663 5.878a.996.996 0 01-.3.047h.015zm29.326 36.975c-.071 0-.142 0-.213-.024-4.561-.98-12.32-4.748-15.154-7.348-2.447-1.825-4.402-3.27-6.065-4.503-5.756-4.259-8.139-6.013-15.7-12.365a1.02 1.02 0 01-.127-1.43 1.026 1.026 0 011.433-.126c7.514 6.305 9.881 8.059 15.605 12.285 1.679 1.24 3.65 2.695 6.12 4.543.032.024.056.048.088.072 2.549 2.37 9.999 5.972 14.235 6.88.554.12.903.657.784 1.21a1.023 1.023 0 01-.998.806h-.008z"/><path d="M149.564 65.615a1.02 1.02 0 01-.744-.324c-2.652-2.82-6.057-7.569-7.189-14.174-.34-1.975-1.132-6.597.728-11.85 1.703-4.796 4.672-7.57 8.108-10.785a46.244 46.244 0 0110.197-7.198 1.017 1.017 0 11.95 1.801 44.246 44.246 0 00-9.746 6.882c-3.373 3.153-6.041 5.65-7.577 9.979-1.686 4.756-.958 9.014-.641 10.832 1.045 6.107 4.204 10.507 6.666 13.122a1.012 1.012 0 01-.047 1.438 1.04 1.04 0 01-.697.277h-.008zM135.337 33.83a.994.994 0 01-.792-.379 1.016 1.016 0 01.15-1.43 27.702 27.702 0 015.645-3.531 28.1 28.1 0 017.649-2.331 1.018 1.018 0 11.308 2.015 25.888 25.888 0 00-12.327 5.443c-.19.15-.412.23-.641.23l.008-.017zm4.172 22.083c-.214 0-.435-.071-.625-.213-2.201-1.7-6.113-5.357-7.506-10.777-.428-1.675-1.33-5.167.245-8.73.222-.498.483-.988.776-1.446a1.016 1.016 0 011.41-.3c.475.308.609.932.3 1.406a7.834 7.834 0 00-.625 1.161c-1.291 2.924-.538 5.84-.135 7.411 1.243 4.836 4.783 8.138 6.778 9.67.443.34.53.98.182 1.43a1.006 1.006 0 01-.808.396l.008-.008zM39.053 34.075c-.213 0-.427 0-.649-.015-4.631-.198-7.91-2.426-9.453-3.737a1.013 1.013 0 01-.119-1.43 1.018 1.018 0 011.433-.119c1.346 1.146 4.204 3.081 8.218 3.255 4.03.166 6.77-1.517 8.583-2.639.99-.616 1.37-.987 1.496-1.153-.3-.34-1.599-.932-5.811-1.683-3.785-.671-7.767-.837-11.837-.49a1.019 1.019 0 01-1.1-.924 1.012 1.012 0 01.926-1.098c4.244-.364 8.409-.19 12.367.513 3.872.688 7.363 1.486 7.53 3.587.079.956-.673 1.849-2.502 2.979-1.813 1.122-4.79 2.954-9.09 2.954h.008z"/><path d="M21.144 35.553c-.356 0-.704-.19-.894-.522a1.012 1.012 0 01.395-1.382c3.128-1.73 5.733-4.046 7.752-6.858a22.624 22.624 0 002.644-4.843 1.02 1.02 0 011.322-.569c.523.205.776.798.57 1.32a25.012 25.012 0 01-2.882 5.27c-2.193 3.065-5.027 5.577-8.416 7.457a1.01 1.01 0 01-.49.127zm-9.366-20.186a1.62 1.62 0 011.868-1.328 1.618 1.618 0 11-.538 3.192 1.618 1.618 0 01-1.33-1.864zm45.683 38.349a37.889 37.889 0 01-5.225-.426 37.363 37.363 0 01-6.912-1.739c-8.234-2.923-12.74-5.443-20.197-9.615a1.016 1.016 0 11.998-1.77c7.616 4.26 11.812 6.606 19.888 9.473a35.95 35.95 0 006.532 1.644c1.615.245 3.254.38 4.885.403 1.86-.071 2.755-.324 3.159-.506-.5-.34-1.774-1.003-4.965-2.007a1.015 1.015 0 11.61-1.935c5.13 1.611 6.864 2.718 6.627 4.21-.3 1.865-3.23 2.19-5.408 2.276l.008-.008z"/><path d="M60.573 49.276a31.8 31.8 0 01-1.805-.063c-8.179-.505-14.782-2.244-15.06-2.323a91.962 91.962 0 01-9.175-2.978 1.022 1.022 0 01-.586-1.312 1.025 1.025 0 011.314-.584 90.557 90.557 0 008.97 2.915c.27.071 6.675 1.762 14.655 2.252 1.837.11 3.817.158 6.136-.664a13 13 0 003.547-1.92 1.015 1.015 0 011.426.198 1.01 1.01 0 01-.198 1.422 15.017 15.017 0 01-4.094 2.212c-1.892.672-3.61.845-5.138.845h.008z"/><path d="M94.214 53.716c-2.66 0-5.305-.26-7.926-.782-5.787-1.161-11.377-3.642-16.167-7.174a1.018 1.018 0 01-.214-1.422c.333-.45.974-.545 1.425-.213 4.553 3.358 9.858 5.72 15.352 6.818 4.133.83 8.353.964 12.55.419-.159-1.359-.618-3.769-1.885-5.507-.364-.498-.966-1.327-2.027-1.999-.277-.181-.49-.284-1.069-.569l-.403-.197a152.372 152.372 0 01-2.708-1.383 1.017 1.017 0 01-.428-1.374 1.021 1.021 0 011.378-.427c.61.324 1.528.798 2.668 1.359l.396.197c.61.3.887.435 1.267.68 1.385.885 2.161 1.943 2.573 2.512 1.971 2.686 2.304 6.44 2.359 7.522.024.521-.348.98-.863 1.058-2.09.324-4.188.49-6.286.49l.008-.008zm8.883-32.084c-1.496 0-3.088-.103-4.861-.292a1.015 1.015 0 01-.903-1.122 1.01 1.01 0 011.124-.9c1.711.18 3.231.276 4.656.284a1.016 1.016 0 11-.008 2.03h-.008zM104 10.09c-.103 0-.214-.017-.317-.048-1.14-.38-2.28-.767-3.42-1.162-3.144-1.082-6.398-2.204-9.77-2.947-14.68-2.978-28.978-4.258-42.485-3.8a1.022 1.022 0 01-1.053-.98c-.016-.56.42-1.034.982-1.05 13.657-.466 28.122.821 42.975 3.84 3.508.774 6.81 1.911 10.008 3.017 1.132.388 2.264.783 3.396 1.154.539.174.824.75.65 1.28a1.025 1.025 0 01-.966.703v-.008zM26.235 7.711c-.388 0-.76-.221-.926-.592-.23-.514 0-1.114.507-1.343a65.773 65.773 0 017.988-3.018A65.864 65.864 0 0144.572.427a1.012 1.012 0 011.14.877 1.01 1.01 0 01-.879 1.138 63.631 63.631 0 00-10.435 2.26 64.355 64.355 0 00-7.743 2.922.985.985 0 01-.42.095v-.008z"/><path d="M46.424 4.938a1.04 1.04 0 01-.863-.466 1.018 1.018 0 01.31-1.407c.213-.134.53-.331.918-.553A19.103 19.103 0 0151.468.648a19.148 19.148 0 013.911-.569 1.017 1.017 0 11.087 2.03 17.158 17.158 0 00-7.68 2.165c-.348.198-.625.372-.823.49a.977.977 0 01-.547.158l.008.016zm14.196.892a1.015 1.015 0 01-.546-1.872c.214-.134.53-.332.919-.553a19.034 19.034 0 014.687-1.864 19.148 19.148 0 013.91-.57 1.017 1.017 0 11.087 2.03 17.155 17.155 0 00-7.68 2.165c-.347.199-.624.372-.822.49a.995.995 0 01-.547.159l-.008.016zm13.096 1.85c-.333 0-.665-.166-.863-.466a1.02 1.02 0 01.309-1.407c.213-.134.53-.332.918-.553a19.285 19.285 0 018.598-2.433 1.017 1.017 0 11.087 2.03 17.155 17.155 0 00-7.68 2.165c-.348.197-.625.371-.823.49a.977.977 0 01-.546.158v.016zm19.461 41.944h-.024c-3.484-.087-6.793-.87-9.826-2.339a23.448 23.448 0 01-3.768-2.283 1.01 1.01 0 01-.206-1.422c.34-.45.974-.545 1.425-.205a20.97 20.97 0 003.436 2.085c2.771 1.336 5.796 2.054 8.986 2.133.563.016 1.006.482.998 1.043a1.023 1.023 0 01-1.021.996v-.008zm-1.837-4.101c-.119 0-.238-.023-.349-.063l-5.803-2.117a1.017 1.017 0 11.697-1.912l5.803 2.117a1.017 1.017 0 01-.348 1.975zm14.457-23.986a1.016 1.016 0 01-.032-2.03c3.84-.11 5.479-.853 5.748-2.639-.728-2.441-2.597-4.424-5.7-6.052a1.017 1.017 0 11.95-1.801c3.713 1.943 5.93 4.4 6.769 7.505.032.119.04.245.032.364-.428 4.44-5.55 4.59-7.735 4.653h-.032z"/></g></svg>