<svg width="163" height="66" viewBox="0 0 163 66" fill="none" xmlns="http://www.w3.org/2000/svg">
<g id="Group">
<path id="Vector" d="M2.8394 22.3352C2.45937 22.3352 2.09516 22.1219 1.92098 21.7585C1.37468 20.6287 1.16091 19.4989 1.27176 18.4086C1.84972 12.8308 10.5193 10.0498 16.8532 8.01929C23.5354 5.87822 30.6136 4.64572 37.8817 4.3613C38.4201 4.3218 38.9189 4.77213 38.9427 5.34098C38.9664 5.90192 38.523 6.37596 37.9609 6.39966C30.8748 6.67619 23.9867 7.86918 17.4786 9.95495C12.3403 11.6062 3.73406 14.3635 3.2986 18.6219C3.22735 19.3409 3.37778 20.0994 3.75781 20.8894C4.00325 21.3951 3.78948 22.0034 3.28277 22.2483C3.14026 22.3194 2.98983 22.351 2.8394 22.351V22.3352Z" fill="#408F95"/>
<path id="Vector_2" d="M117.032 28.5689C117.032 28.5689 116.953 28.5689 116.913 28.5689C115.274 28.3793 113.635 28.0395 112.044 27.5497C109.93 26.9018 108.354 26.1118 107.689 25.7799L107.468 25.6693C100.255 22.1773 92.8124 18.9538 85.3543 16.1017C78.4899 13.4787 73.0586 11.4008 65.7587 9.58365C58.0551 7.67169 50.0744 6.4945 42.0462 6.09947C41.484 6.06786 41.0486 5.59383 41.0802 5.03288C41.1119 4.47194 41.579 4.0374 42.1491 4.069C50.3119 4.47194 58.4193 5.66493 66.2575 7.61639C73.684 9.46514 79.1549 11.5588 86.0906 14.2055C93.6042 17.0813 101.102 20.3206 108.362 23.8364L108.608 23.9549C109.289 24.2946 110.706 25.0057 112.653 25.6061C114.126 26.0565 115.638 26.3725 117.158 26.5463C117.721 26.6095 118.116 27.1152 118.053 27.6682C117.998 28.1896 117.554 28.5689 117.04 28.5689H117.032Z" fill="#408F95"/>
<path id="Vector_3" d="M21.6827 40.3563C21.5243 40.3563 21.366 40.3168 21.2155 40.2457C19.4658 39.3371 16.8531 37.9466 14.3749 36.4613C13.7178 36.0662 12.4906 35.3394 10.9071 34.2728C10.4242 33.9489 9.90161 33.5933 9.36322 33.1983C7.43138 31.8236 5.56288 30.3304 3.79731 28.7661C3.7498 28.7187 3.7023 28.6712 3.66271 28.6159C3.57562 28.5053 3.44103 28.3394 3.26684 28.134C1.47751 25.9692 -0.208888 23.7176 0.495759 22.1058C0.717445 21.5923 1.26374 20.9681 2.57803 20.897C3.14808 20.8575 3.62312 21.2921 3.65479 21.853C3.68646 22.4139 3.25892 22.8959 2.69679 22.9275C2.53053 22.9354 2.4276 22.9591 2.36426 22.9749C2.36426 23.3383 2.73638 24.2943 4.8424 26.8383C5.00075 27.0279 5.12742 27.1859 5.22243 27.3044C6.91675 28.7977 8.70608 30.2198 10.5508 31.5392C11.0813 31.9184 11.5801 32.2581 12.0472 32.5821C13.5832 33.617 14.7787 34.3281 15.42 34.7152C17.8586 36.1689 20.4238 37.5437 22.1498 38.4364C22.6486 38.6972 22.8465 39.3055 22.5853 39.8111C22.4032 40.1588 22.0469 40.3642 21.6827 40.3642V40.3563Z" fill="#408F95"/>
<path id="Vector_4" d="M62.275 46.2899C52.315 46.2899 42.7508 45.168 42.632 45.1522C36.6227 44.4016 30.558 43.2955 24.6199 41.8655C24.0736 41.7312 23.7332 41.1861 23.8678 40.6409C24.0024 40.0958 24.5487 39.7561 25.095 39.8904C30.9618 41.3046 36.9473 42.3949 42.8774 43.1296C43.0041 43.1454 56.4716 44.7256 67.9676 44.1093C71.5304 43.9197 75.1487 43.4852 78.7115 42.8057C80.3029 42.5055 81.1659 42.2922 84.7841 41.4152L89.1625 40.3486C90.5955 40.001 91.8465 39.685 92.9549 39.4084C96.2644 38.5789 98.4495 38.0258 100.571 37.8757C103.715 37.6545 106.921 37.9231 110.088 38.6816C110.634 38.808 110.975 39.361 110.84 39.9062C110.714 40.4513 110.167 40.791 109.613 40.6567C106.644 39.9536 103.651 39.7008 100.714 39.9062C98.7662 40.0405 96.7631 40.5461 93.4537 41.3836C92.3373 41.668 91.0785 41.984 89.6454 42.3317L85.2671 43.3983C81.6964 44.2673 80.7384 44.5043 79.0915 44.8125C75.4416 45.4998 71.7363 45.9502 68.0785 46.1477C66.1704 46.2504 64.2148 46.2899 62.275 46.2899Z" fill="#408F95"/>
<path id="Vector_5" d="M120.238 28.64C119.803 28.64 119.399 28.3556 119.265 27.9211C119.098 27.3838 119.399 26.815 119.938 26.6491C122.313 25.9222 134.696 22.2089 144.901 20.7078C149.881 19.973 153.531 19.9019 157.505 20.455C158.804 20.6367 160.102 20.8895 161.369 21.1976C161.915 21.332 162.248 21.885 162.113 22.4301C161.979 22.9753 161.433 23.315 160.878 23.1728C159.683 22.8805 158.448 22.6435 157.213 22.4696C153.444 21.9403 149.96 22.0114 145.186 22.7146C135.131 24.1999 122.875 27.8658 120.523 28.5926C120.42 28.6242 120.325 28.64 120.223 28.64H120.238Z" fill="#408F95"/>
<path id="Vector_6" d="M149.564 65.6146C149.493 65.6146 149.422 65.6146 149.351 65.5909C144.79 64.6112 137.031 60.8426 134.197 58.2433C131.75 56.4182 129.795 54.9724 128.132 53.7399C122.376 49.4815 119.993 47.7275 112.432 41.3754C112.004 41.012 111.949 40.3721 112.305 39.9454C112.669 39.5188 113.311 39.4635 113.738 39.819C121.252 46.1237 123.619 47.8777 129.343 52.1045C131.022 53.3449 132.993 54.7986 135.463 56.6474C135.495 56.6711 135.519 56.6948 135.551 56.7185C138.1 59.0887 145.55 62.6913 149.786 63.5999C150.34 63.7184 150.689 64.2557 150.57 64.8087C150.467 65.2828 150.047 65.6146 149.572 65.6146H149.564Z" fill="#408F95"/>
<path id="Vector_7" d="M149.564 65.6149C149.295 65.6149 149.018 65.5042 148.82 65.2909C146.168 62.4704 142.763 57.7221 141.631 51.1172C141.291 49.142 140.499 44.5202 142.359 39.2662C144.062 34.4706 147.031 31.6974 150.467 28.4819C153.483 25.6613 156.912 23.2438 160.664 21.2844C161.163 21.0237 161.781 21.2133 162.042 21.711C162.303 22.2088 162.113 22.825 161.614 23.0857C158.028 24.9582 154.75 27.2731 151.868 29.9672C148.495 33.1195 145.827 35.6161 144.291 39.9457C142.605 44.7019 143.333 48.9603 143.65 50.7775C144.695 56.8846 147.854 61.2853 150.316 63.9004C150.704 64.3112 150.681 64.9512 150.269 65.3383C150.071 65.52 149.818 65.6149 149.572 65.6149H149.564Z" fill="#408F95"/>
<path id="Vector_8" d="M135.337 33.8304C135.036 33.8304 134.743 33.704 134.545 33.4512C134.189 33.0166 134.26 32.3767 134.695 32.0211C136.429 30.6227 138.329 29.4297 140.34 28.4896C142.763 27.3519 145.336 26.5697 147.989 26.1589C148.543 26.072 149.065 26.4512 149.152 27.0121C149.24 27.5652 148.86 28.0866 148.297 28.1735C145.835 28.5528 143.452 29.2796 141.203 30.3383C139.343 31.2153 137.577 32.3135 135.97 33.6171C135.78 33.7672 135.558 33.8462 135.329 33.8462L135.337 33.8304Z" fill="#408F95"/>
<path id="Vector_9" d="M139.509 55.9128C139.295 55.9128 139.074 55.8417 138.884 55.6995C136.683 54.0009 132.771 50.3429 131.378 44.9231C130.95 43.2481 130.048 39.756 131.623 36.1929C131.845 35.6951 132.106 35.2053 132.399 34.747C132.708 34.273 133.334 34.1387 133.809 34.4468C134.284 34.7549 134.418 35.3791 134.109 35.8531C133.872 36.2166 133.658 36.6116 133.484 37.0145C132.193 39.9378 132.946 42.8531 133.349 44.4253C134.592 49.2605 138.132 52.563 140.127 54.0957C140.57 54.4354 140.657 55.0754 140.309 55.5257C140.111 55.7864 139.81 55.9207 139.501 55.9207L139.509 55.9128Z" fill="#408F95"/>
<path id="Vector_10" d="M39.0535 34.0754C38.8397 34.0754 38.626 34.0754 38.4043 34.0596C33.7726 33.8621 30.4948 31.6341 28.9509 30.3226C28.5234 29.9592 28.468 29.3192 28.8322 28.8926C29.1964 28.466 29.8377 28.4107 30.2652 28.7741C31.6112 29.9197 34.4693 31.8554 38.4835 32.0292C42.5134 32.1951 45.2528 30.5122 47.0659 29.3904C48.0556 28.7741 48.4356 28.4028 48.5623 28.2369C48.2614 27.8971 46.963 27.3046 42.7509 26.554C38.9664 25.8825 34.984 25.7166 30.9144 26.0642C30.3523 26.1037 29.8614 25.7008 29.8139 25.1398C29.7664 24.5789 30.1781 24.089 30.7403 24.0416C34.984 23.6782 39.1485 23.852 43.1072 24.5552C46.9788 25.2425 50.4704 26.0405 50.6367 28.1421C50.7158 29.098 49.9637 29.9908 48.1348 31.1206C46.3217 32.2425 43.3447 34.0754 39.0456 34.0754H39.0535Z" fill="#408F95"/>
<path id="Vector_11" d="M21.1442 35.5527C20.7879 35.5527 20.4395 35.3631 20.2495 35.0313C19.9724 34.5414 20.1545 33.9173 20.6454 33.6487C23.7728 31.9184 26.3776 29.6035 28.3965 26.7909C29.4653 25.2977 30.36 23.6702 31.0409 21.9478C31.2468 21.4264 31.8406 21.1736 32.3631 21.379C32.8857 21.5844 33.139 22.1769 32.9332 22.6984C32.181 24.5708 31.2151 26.3485 30.0512 27.9681C27.8581 31.0336 25.0237 33.546 21.6351 35.4263C21.4767 35.5132 21.3105 35.5527 21.1442 35.5527Z" fill="#408F95"/>
<path id="Vector_12" d="M11.7779 15.3667C11.9284 14.4818 12.7676 13.8892 13.6464 14.0394C14.5332 14.1895 15.127 15.0269 14.9765 15.9039C14.8261 16.7888 13.9869 17.3813 13.108 17.2312C12.2213 17.0811 11.6275 16.2436 11.7779 15.3667Z" fill="#408F95"/>
<path id="Vector_13" d="M57.4613 53.7163C55.6799 53.6926 53.946 53.5504 52.2358 53.2896C49.8923 52.9341 47.5646 52.3495 45.3239 51.5515C37.0899 48.6283 32.5849 46.108 25.1267 41.9364C24.6358 41.6599 24.4616 41.0437 24.7387 40.5538C25.0158 40.064 25.6334 39.8902 26.1243 40.1667C33.7408 44.4251 37.937 46.7716 46.0127 49.6395C48.1346 50.3901 50.3277 50.9431 52.5446 51.2829C54.1597 51.5278 55.7986 51.6621 57.4296 51.6858C59.2902 51.6147 60.1849 51.3619 60.5886 51.1802C60.0899 50.8404 58.8152 50.1768 55.6244 49.1734C55.0861 49.0075 54.7931 48.4307 54.9594 47.9014C55.1257 47.3642 55.7036 47.0639 56.2341 47.2378C61.3646 48.8495 63.0985 49.9556 62.8609 51.4488C62.5601 53.3133 59.6306 53.6373 57.4534 53.7242L57.4613 53.7163Z" fill="#408F95"/>
<path id="Vector_14" d="M60.5729 49.2764C59.9395 49.2764 59.3378 49.2448 58.7677 49.2132C50.5891 48.7075 43.986 46.9694 43.7089 46.8904C40.629 46.0687 37.5412 45.0653 34.5326 43.9118C34.0101 43.7064 33.7488 43.1218 33.9467 42.6003C34.1526 42.0789 34.7385 41.8182 35.261 42.0157C38.2063 43.1455 41.2228 44.1252 44.2314 44.931C44.5006 45.0021 50.9058 46.6929 58.8865 47.1827C60.7233 47.2933 62.7027 47.3407 65.0225 46.519C66.2813 46.0766 67.4769 45.4288 68.5695 44.5992C69.0207 44.2595 69.6541 44.3464 69.9946 44.7967C70.335 45.247 70.2479 45.8791 69.7966 46.2188C68.5378 47.1748 67.1602 47.9175 65.7034 48.431C63.8111 49.1026 62.093 49.2764 60.565 49.2764H60.5729Z" fill="#408F95"/>
<path id="Vector_15" d="M94.2137 53.7163C91.5535 53.7163 88.9091 53.4556 86.2884 52.9341C80.5008 51.7727 74.9112 49.2919 70.1211 45.7603C69.6698 45.4285 69.5748 44.7886 69.9074 44.3382C70.2399 43.8879 70.8812 43.7931 71.3325 44.1249C75.885 47.4827 81.1896 49.845 86.6843 50.9432C90.8172 51.7727 95.0371 51.907 99.2334 51.3619C99.075 50.003 98.6158 47.5933 97.349 45.8552C96.9848 45.3574 96.3831 44.5279 95.3222 43.8563C95.0451 43.6746 94.8313 43.5719 94.2533 43.2875L93.8495 43.0899C92.6936 42.5132 91.7593 42.0313 91.1418 41.7073C90.643 41.4466 90.453 40.8304 90.7143 40.3326C90.9755 39.8349 91.5931 39.6453 92.0919 39.906C92.7015 40.2299 93.6199 40.7039 94.76 41.2649L95.1559 41.4624C95.7655 41.7626 96.0427 41.8969 96.4227 42.1419C97.8082 43.0267 98.5841 44.0854 98.9958 44.6543C100.967 47.3405 101.3 51.0933 101.355 52.1757C101.379 52.6971 101.007 53.1553 100.492 53.2343C98.402 53.5583 96.3039 53.7242 94.2058 53.7242L94.2137 53.7163Z" fill="#408F95"/>
<path id="Vector_16" d="M103.097 21.632C101.601 21.632 100.009 21.5293 98.2358 21.3397C97.6736 21.2764 97.2699 20.7787 97.3332 20.2178C97.3965 19.6568 97.8953 19.246 98.4575 19.3171C100.168 19.4988 101.688 19.5936 103.113 19.6015C103.675 19.6015 104.126 20.0597 104.126 20.6207C104.126 21.1816 103.667 21.632 103.105 21.632H103.097Z" fill="#408F95"/>
<path id="Vector_17" d="M104 10.0891C103.897 10.0891 103.786 10.0733 103.683 10.0417C102.543 9.6625 101.403 9.27537 100.263 8.88034C97.1195 7.79795 93.8655 6.67606 90.4927 5.9334C75.8139 2.95486 61.5151 1.67496 48.008 2.1332C47.4538 2.149 46.9708 1.71446 46.955 1.15352C46.9392 0.592573 47.3746 0.118535 47.9368 0.102734C61.5943 -0.363403 76.0593 0.9244 90.9123 3.94244C94.4197 4.7167 97.7213 5.8544 100.92 6.96048C102.052 7.34761 103.184 7.74265 104.316 8.11398C104.855 8.28779 105.14 8.86454 104.966 9.39388C104.823 9.82051 104.427 10.097 104 10.097V10.0891Z" fill="#408F95"/>
<path id="Vector_18" d="M26.2352 7.71125C25.8473 7.71125 25.4752 7.49004 25.3089 7.11871C25.0793 6.60517 25.3089 6.00472 25.8156 5.7756C28.4046 4.5984 31.0886 3.58712 33.8043 2.75756C37.3117 1.68307 40.9299 0.900908 44.5719 0.42687C45.134 0.355764 45.6408 0.742895 45.712 1.30384C45.7833 1.86479 45.3953 2.37043 44.8332 2.44153C41.3099 2.89977 37.7946 3.65823 34.3981 4.70111C31.7695 5.50698 29.1568 6.48666 26.6549 7.62435C26.5203 7.68755 26.3778 7.71915 26.2352 7.71915V7.71125Z" fill="#408F95"/>
<path id="Vector_19" d="M46.4244 4.93794C46.0919 4.93794 45.7594 4.77203 45.5614 4.4718C45.2606 3.99776 45.3952 3.36571 45.8702 3.06549C46.084 2.93118 46.4007 2.73366 46.7886 2.51244C48.2454 1.69078 49.821 1.06663 51.4678 0.647896C52.7425 0.32397 54.0568 0.134355 55.379 0.0790503C55.9411 0.0553484 56.4162 0.489883 56.4399 1.05083C56.4637 1.61177 56.0282 2.08581 55.4661 2.10951C54.2785 2.15692 53.1067 2.33073 51.9666 2.61515C50.494 2.98648 49.0847 3.54743 47.7862 4.27429C47.4378 4.4718 47.1607 4.64562 46.9628 4.76413C46.7965 4.87473 46.6065 4.92214 46.4165 4.92214L46.4244 4.93794Z" fill="#408F95"/>
<path id="Vector_20" d="M60.6204 5.8307C60.2878 5.8307 59.9553 5.66478 59.7653 5.36456C59.4644 4.89052 59.599 4.26637 60.0741 3.95825C60.2878 3.82394 60.6045 3.62642 60.9925 3.4052C62.4493 2.58354 64.0248 1.95939 65.6796 1.54065C66.9543 1.21673 68.2686 1.02711 69.5908 0.971808C70.1529 0.940206 70.6279 1.38264 70.6517 1.94359C70.6754 2.50453 70.24 2.97857 69.6778 3.00227C68.4902 3.04967 67.3185 3.22349 66.1784 3.50791C64.7057 3.87924 63.2964 4.44019 61.998 5.16704C61.6496 5.36456 61.3725 5.53837 61.1746 5.65688C61.0083 5.76749 60.8104 5.8149 60.6283 5.8149L60.6204 5.8307Z" fill="#408F95"/>
<path id="Vector_21" d="M73.7157 7.67964C73.3831 7.67964 73.0506 7.51373 72.8527 7.2135C72.5518 6.73946 72.6864 6.11531 73.1615 5.80719C73.3752 5.67288 73.6919 5.47536 74.0799 5.25414C75.5446 4.43248 77.1202 3.80833 78.767 3.3896C80.0417 3.06567 81.356 2.87605 82.6782 2.82075C83.2403 2.79705 83.7153 3.23158 83.7391 3.79253C83.7628 4.35347 83.3274 4.82751 82.7653 4.85121C81.5776 4.89862 80.4059 5.07243 79.2658 5.35685C77.7931 5.72818 76.3838 6.28913 75.0854 7.01599C74.737 7.2135 74.4599 7.38732 74.262 7.50583C74.0957 7.61643 73.9057 7.66384 73.7157 7.66384V7.67964Z" fill="#408F95"/>
<path id="Vector_22" d="M93.1766 49.624H93.1528C89.6692 49.5371 86.3597 48.7549 83.3273 47.2854C82.0051 46.6455 80.7384 45.8791 79.5587 45.0021C79.1074 44.6624 79.0124 44.0304 79.3528 43.58C79.6933 43.1297 80.3267 43.0349 80.7779 43.3746C81.8547 44.1805 83.0186 44.8836 84.2141 45.4604C86.9852 46.7956 90.0096 47.5145 93.2003 47.5935C93.7625 47.6093 94.2058 48.0755 94.1979 48.6364C94.1821 49.1895 93.7308 49.6319 93.1766 49.6319V49.624Z" fill="#408F95"/>
<path id="Vector_23" d="M91.3399 45.5234C91.2211 45.5234 91.1024 45.4997 90.9915 45.4602L85.1881 43.3428C84.6576 43.1532 84.3884 42.5685 84.5784 42.0392C84.7684 41.5098 85.3622 41.2412 85.8848 41.4308L91.6882 43.5482C92.2187 43.7378 92.4879 44.3225 92.2979 44.8518C92.1474 45.2626 91.7595 45.5234 91.3399 45.5234Z" fill="#408F95"/>
<path id="Vector_24" d="M105.797 21.5374C105.251 21.5374 104.791 21.1028 104.776 20.5498C104.76 19.9888 105.203 19.5227 105.765 19.5069C109.605 19.3963 111.244 18.6536 111.513 16.8681C110.785 14.4268 108.916 12.4437 105.813 10.8162C105.314 10.5555 105.124 9.93924 105.385 9.4415C105.646 8.94376 106.264 8.75415 106.763 9.01487C110.476 10.9584 112.693 13.4155 113.532 16.5205C113.564 16.639 113.572 16.7654 113.564 16.8839C113.136 21.3241 108.014 21.4742 105.829 21.5374C105.821 21.5374 105.805 21.5374 105.797 21.5374Z" fill="#408F95"/>
</g>
</svg>
